# xmcd
#
# Track frame offsets:
#	150
#	22258
#	40258
#	66672
#	79174
#	105946
#	117915
#	132398
#	152028
#	177159
#	198420
#	216862
#	236145
#	254915
#	269016
#	287299
#	305762
#
# Disc length: 4424 seconds
#
# Revision: 1
# Processed by: cddbd v1.4PL0 Copyright (c) Steve Scherf et al.
# Submitted via: audiograbber 1.80.04
#
DISCID=08114611
DTITLE=Various Artist - Texas Guitar Slingers Vol. 1
DYEAR=2002
DGENRE=
TTITLE0=Roscoe Beck - Outrage
TTITLE1=Chris Duarte - Violence
TTITLE2=Jimmie Vaughan - Dirty Girl
TTITLE3=Eric Johnson and Alien Love Child - Enzo Shuffle
TTITLE4=Dave Sebree - Halfway to Avalon
TTITLE5=Chris Vincent - Taranto
TTITLE6=Stephen Bruton - Just a Step
TTITLE7=Double Trouble with Denny Freeman - Abandoned in London
TTITLE8=David Grissom - Belly of the Beast
TTITLE9=Derek O'Brien - Nose Open
TTITLE10=Mitch Watkins - Why Not?
TTITLE11=Bill Carter wth Erik Hokkanen - Feels Like Rain
TTITLE12=Omar and the Howlers - Meanin' of the Blues
TTITLE13=Ray Benson - Moon Over Manchaca
TTITLE14=Stephen Doster - You Can't Touch Her Anymore
TTITLE15=Van Wilks - Little Mona and the Scorpion
TTITLE16=Glenn Rexach - Electric Drunk
EXTD=
EXTT0=
EXTT1=
EXTT2=
EXTT3=
EXTT4=
EXTT5=
EXTT6=
EXTT7=
EXTT8=
EXTT9=
EXTT10=
EXTT11=
EXTT12=
EXTT13=
EXTT14=
EXTT15=
EXTT16=
PLAYORDER=
